<svg xmlns="http://www.w3.org/2000/svg" width="20.811" height="27.594" viewBox="0 0 20.811 27.594"><g transform="translate(-97.767)"><path d="M97.767,3.763V23.831a3.767,3.767,0,0,0,3.763,3.763h13.285a3.767,3.767,0,0,0,3.763-3.763V3.763A3.767,3.767,0,0,0,114.815,0H101.53A3.767,3.767,0,0,0,97.767,3.763Zm5.349,22.459a1.137,1.137,0,1,1,1.137-1.137A1.137,1.137,0,0,1,103.116,26.222Zm5.958,0h-1.8a1.137,1.137,0,1,1,0-2.273h1.8a1.137,1.137,0,0,1,0,2.273Zm4.155,0a1.137,1.137,0,1,1,1.137-1.137A1.137,1.137,0,0,1,113.229,26.222Zm2.84-22.459V22.637H100.275V3.763a1.255,1.255,0,0,1,1.254-1.254h13.285A1.255,1.255,0,0,1,116.069,3.763Z" /><rect width="13.273" height="1.254" transform="translate(101.536 4.782)" /><rect width="13.273" height="1.254" transform="translate(101.536 7.29)" /><rect width="13.273" height="1.254" transform="translate(101.536 9.799)" /><rect width="13.273" height="1.254" transform="translate(101.536 12.307)" /><rect width="8.483" height="1.254" transform="translate(101.536 14.833)" /></g></svg>