<svg xmlns="http://www.w3.org/2000/svg" width="34.381" height="27.427" viewBox="198.619 46 34.381 27.427"><g data-name="CompositeLayer"><path d="m223.96 56.911-9.164 6.11-12.71-8.471v-3.084l12.71 8.471 7.3-4.867a6.502 6.502 0 0 1-1.09-3.604c0-1.27.369-2.462 1.004-3.466h-20.307a3.091 3.091 0 0 0-3.084 3.084v19.26a3.091 3.091 0 0 0 3.084 3.083h26.193a3.091 3.091 0 0 0 3.083-3.083V56.962a6.466 6.466 0 0 1-3.466 1.004 6.482 6.482 0 0 1-3.553-1.055Z" fill="#061628" fill-rule="evenodd" data-name="Path 307"/><path d="M233 51.5a5.5 5.5 0 1 1-11 0 5.5 5.5 0 0 1 11 0Z" fill="#061628" fill-rule="evenodd" data-name="Path 306"/></g></svg>