<svg xmlns="http://www.w3.org/2000/svg" width="26.505" height="26.505" viewBox="289.958 48 26.505 26.505"><g data-name="Group 23"><path d="M314.36 65.369c0-.28.076-.548.21-.778.038-.07.09-.134.134-.197a10.324 10.324 0 0 0 1.758-5.754c.02-5.874-4.937-10.64-11.067-10.64-5.345 0-9.805 3.638-10.85 8.468a10.239 10.239 0 0 0-.236 2.179c0 5.88 4.766 10.774 10.895 10.774.975 0 2.287-.293 3.007-.49.72-.198 1.434-.46 1.619-.53a1.685 1.685 0 0 1 1.236.02l3.612 1.28s.153.064.249.064c.28 0 .51-.223.51-.51 0-.064-.032-.172-.032-.172l-1.045-3.714Z"  fill-rule="evenodd" data-name="Path 304"/><path d="M307.193 69.95c-.23.063-.523.133-.841.203-.67.14-1.523.287-2.167.287-6.13 0-10.895-4.893-10.895-10.774 0-.42.045-.956.096-1.363.038-.274.082-.548.146-.816.064-.287.14-.573.223-.854l-.51.453c-2.09 1.822-3.287 4.421-3.287 7.13 0 1.866.541 3.663 1.58 5.224.146.223.23.395.204.51-.026.114-.758 3.95-.758 3.95a.511.511 0 0 0 .172.49.52.52 0 0 0 .325.115.457.457 0 0 0 .184-.038l3.575-1.408a.996.996 0 0 1 .363-.07s.153-.013.401.083c1.204.471 2.536.764 3.868.764 2.969 0 5.76-1.28 7.652-3.51 0 0 .204-.28.44-.612-.236.083-.504.166-.771.236Z"  fill-rule="evenodd" data-name="Path 305"/></g></svg>