<svg xmlns="http://www.w3.org/2000/svg" width="15.761" height="21.015" viewBox="0 0 15.761 21.015"><path d="M13.791,2.627H10.5a2.627,2.627,0,1,0-5.253,0H1.965A1.971,1.971,0,0,0,0,4.6V19.045a1.971,1.971,0,0,0,1.97,1.97H13.791a1.971,1.971,0,0,0,1.97-1.97V4.6a1.971,1.971,0,0,0-1.97-1.97ZM3.94,17.4a.982.982,0,1,1,.7-.288.985.985,0,0,1-.7.288Zm0-3.94a.983.983,0,1,1,.7-.288.985.985,0,0,1-.7.288Zm0-3.94a.983.983,0,1,1,.7-.288.985.985,0,0,1-.7.288Zm3.941-7.88a.982.982,0,1,1-.7.287A.985.985,0,0,1,7.881,1.643Zm5.253,15.1a.329.329,0,0,1-.329.329H6.9a.329.329,0,0,1-.329-.329v-.656a.329.329,0,0,1,.329-.329H12.8a.329.329,0,0,1,.329.329Zm0-3.94a.329.329,0,0,1-.329.329H6.9a.329.329,0,0,1-.329-.329v-.658A.329.329,0,0,1,6.9,11.82H12.8a.329.329,0,0,1,.329.329Zm0-3.94a.329.329,0,0,1-.329.329H6.9a.329.329,0,0,1-.329-.329V8.209A.329.329,0,0,1,6.9,7.88H12.8a.329.329,0,0,1,.329.329Z" fill="#328ff6"/></svg>