<svg xmlns="http://www.w3.org/2000/svg" width="24.225" height="30.299" viewBox="378.887 47 24.225 30.299"><g data-name="Group 22"><path d="M390.984 77.299c2.355 0 3.643-1.666 3.643-4.014h-7.293c0 2.348 1.288 4.014 3.65 4.014Z" fill="#061628" fill-rule="evenodd" data-name="Path 300"/><path d="M402.806 69.438c-1.166-1.537-3.46-2.438-3.46-9.322 0-7.065-3.12-9.905-6.029-10.586-.272-.069-.47-.16-.47-.447v-.22c0-1.015-.832-1.87-1.847-1.863-1.015-.015-1.848.848-1.848 1.863v.22c0 .28-.197.378-.47.447-2.915.689-6.027 3.52-6.027 10.586 0 6.884-2.295 7.778-3.461 9.322-.75.992-.038 2.409 1.204 2.409h21.212c1.234 0 1.946-1.424 1.196-2.409Z" fill="#061628" fill-rule="evenodd" data-name="Path 301"/></g></svg>