<svg xmlns="http://www.w3.org/2000/svg" width="27.152" height="27.156" viewBox="594.924 52.844 27.152 27.156"><path d="m621.707 76.322-5.288-5.287a1.272 1.272 0 0 0-.902-.372h-.864a10.977 10.977 0 0 0 2.334-6.788c0-6.094-4.938-11.031-11.032-11.031-6.093 0-11.03 4.937-11.03 11.03 0 6.095 4.937 11.032 11.03 11.032 2.562 0 4.917-.87 6.789-2.333v.864c0 .34.132.663.371.902l5.288 5.287a1.268 1.268 0 0 0 1.797 0l1.501-1.5a1.279 1.279 0 0 0 .006-1.804Zm-15.752-5.659a6.785 6.785 0 0 1-6.788-6.788 6.785 6.785 0 0 1 6.788-6.789 6.785 6.785 0 0 1 6.789 6.789 6.785 6.785 0 0 1-6.789 6.788Z" fill="#fff" fill-rule="evenodd" data-name="Icon awesome-search"/></svg>