<svg xmlns="http://www.w3.org/2000/svg" width="11.355" height="10.892" viewBox="0 0 11.355 10.892"><path d="M11.067,9.508a.953.953,0,0,0-.528-1.626l-2.76-.4a.015.015,0,0,1-.012-.008l-1.234-2.5a.953.953,0,0,0-1.71,0l-1.234,2.5a.016.016,0,0,1-.012.008l-2.76.4A.953.953,0,0,0,.289,9.508l2,1.947a.015.015,0,0,1,0,.014l-.471,2.749a.953.953,0,0,0,1.383,1l2.469-1.3a.015.015,0,0,1,.014,0l2.469,1.3a.953.953,0,0,0,1.383-1l-.471-2.749a.015.015,0,0,1,0-.014ZM8.141,11.627l.471,2.749c0,.007,0,.009-.006.015s-.01,0-.016,0l-2.469-1.3a.954.954,0,0,0-.887,0l-2.469,1.3c-.007,0-.008,0-.016,0s-.007-.008-.006-.015l.471-2.749a.953.953,0,0,0-.274-.844l-2-1.947C.939,8.831.937,8.83.94,8.82s.005-.009.012-.011l2.76-.4a.953.953,0,0,0,.718-.521l1.234-2.5c0-.007,0-.009.014-.009s.011,0,.014.009l1.234,2.5a.953.953,0,0,0,.718.521l2.76.4c.007,0,.009,0,.012.011s0,.011,0,.016l-2,1.947A.953.953,0,0,0,8.141,11.627Z" transform="translate(-0.001 -4.44)" fill="#a5a5a5"/></svg>