<svg xmlns="http://www.w3.org/2000/svg" width="32.746" height="25.493" viewBox="0 0 32.746 25.493"><g transform="translate(0 -53.77)"><g transform="translate(0 53.77)"><path d="M65.321,105.77a5.146,5.146,0,1,0,5.146,5.146A5.145,5.145,0,0,0,65.321,105.77Zm0,3.466a1.679,1.679,0,0,0-1.679,1.679.769.769,0,1,1-1.538,0,3.214,3.214,0,0,1,3.21-3.21.765.765,0,0,1,.007,1.531Z" transform="translate(-56.117 -102.263)" /><path d="M277.921,53.77a5.146,5.146,0,1,0,5.146,5.146A5.145,5.145,0,0,0,277.921,53.77Zm0,3.467a1.679,1.679,0,0,0-1.679,1.679.769.769,0,1,1-1.538,0,3.214,3.214,0,0,1,3.21-3.21.769.769,0,0,1,.769.769A.757.757,0,0,1,277.921,57.237Z" transform="translate(-254.379 -53.77)" /><path d="M241.518,228.87v-.121a3.51,3.51,0,0,0-1.8-3.379c-1.963-1.234-4.154-2.3-4.154-2.3l-1.747,5.517-1.018-2.05c1.787-2.5-.128-2.623-.465-2.623h-.027c-.344,0-2.259.128-.465,2.623l-1.018,2.05-1.747-5.517s-2.192,1.066-4.154,2.3a4.257,4.257,0,0,0-1.045.883c.708.384,1.517.85,2.3,1.342a5.142,5.142,0,0,1,2,2.131,5.929,5.929,0,0,1,.5,2.408,1,1,0,0,1,.007.142v.088q.01.445,0,.91v.364h12.827v-3.885C241.524,229.443,241.524,229.146,241.518,228.87Zm-.013-.148Z" transform="translate(-208.776 -211.652)" /><g transform="translate(0 14.925)"><path d="M18.4,280.87v-.121a3.5,3.5,0,0,0-1.8-3.379c-1.963-1.234-4.154-2.3-4.154-2.3l-1.747,5.517-1.018-2.05c1.787-2.5-.128-2.623-.465-2.623H9.184c-.344,0-2.259.128-.465,2.623L7.7,280.587,5.953,275.07s-2.192,1.066-4.154,2.3a3.516,3.516,0,0,0-1.794,3.379v.121c-.007.277-.007.573,0,.883v3.885H18.4v-3.885C18.4,281.443,18.4,281.146,18.4,280.87Z" transform="translate(0 -275.07)" /><g transform="translate(0.019 5.631)"><path d="M.275,358.59Z" transform="translate(-0.275 -358.57)" /></g><g transform="translate(18.383 5.633)"><path d="M272.575,358.62Z" transform="translate(-272.575 -358.595)" /></g></g></g></g></svg>